# xmcd
#
# Track frame offsets: 
#        150
#        28529
#        39464
#        55762
#        74094
#        91911
#        110169
#        133536
#        161311
#        180829
#
# Disc length: 2581 seconds
#
# Revision: 0
# Processed by: cddbd v1.5.2PL0 Copyright (c) Steve Scherf et al.
# Submitted via: ExactAudioCopy v1.0b4
#
DISCID=7d0a130a
DTITLE=Norman Beaker and John Price - Between The Lines
DYEAR=2013
DGENRE=Blues
TTITLE0=Music In Your Heart
TTITLE1=House Where No One Lives
TTITLE2=Night Club
TTITLE3=It Doesn't Matter Any More
TTITLE4=Tale Of The City
TTITLE5=No Control
TTITLE6=Can't Be Satified
TTITLE7=Falling Between The Lines
TTITLE8=Look What You Made Me Do
TTITLE9=Sitting On Top Of The World
EXTD=
EXTT0=
EXTT1=
EXTT2=
EXTT3=
EXTT4=
EXTT5=
EXTT6=
EXTT7=
EXTT8=
EXTT9=
PLAYORDER=
